<svg xmlns="http://www.w3.org/2000/svg" xmlns:xlink="http://www.w3.org/1999/xlink" width="500" zoomAndPan="magnify" viewBox="0 0 375 374.999991" height="500" preserveAspectRatio="xMidYMid meet" version="1.0"><defs><clipPath id="id1"><path d="M 133.96875 104.570312 L 268.21875 104.570312 L 268.21875 254.570312 L 133.96875 254.570312 Z M 133.96875 104.570312 " clip-rule="nonzero"/></clipPath></defs><g clip-path="url(#id1)"><path fill="rgb(0.779724%, 46.669006%, 74.119568%)" d="M 268.199219 104.570312 L 133.988281 104.570312 L 145.832031 238.78125 L 201.09375 254.570312 L 256.359375 238.78125 Z M 268.199219 104.570312 " fill-opacity="1" fill-rule="nonzero"/></g><path fill="rgb(1.179504%, 60.778809%, 89.7995%)" d="M 201.09375 116.410156 L 201.09375 242.332031 L 245.304688 229.699219 L 255.175781 116.410156 Z M 201.09375 116.410156 " fill-opacity="1" fill-rule="nonzero"/><path fill="rgb(100%, 100%, 100%)" d="M 237.015625 136.148438 L 201.09375 136.148438 L 201.09375 151.9375 L 220.4375 151.9375 L 219.253906 167.726562 L 201.09375 167.726562 L 201.09375 183.515625 L 218.464844 183.515625 L 217.28125 201.28125 L 201.09375 206.804688 L 201.09375 223.386719 L 232.28125 213.121094 L 235.042969 167.726562 Z M 237.015625 136.148438 " fill-opacity="1" fill-rule="nonzero"/><path fill="rgb(93.328857%, 93.328857%, 93.328857%)" d="M 201.09375 136.148438 L 201.09375 151.9375 L 165.964844 151.9375 L 164.78125 136.148438 Z M 182.9375 167.726562 L 183.726562 183.515625 L 201.09375 183.515625 L 201.09375 167.726562 Z M 184.515625 191.410156 L 168.726562 191.410156 L 169.910156 213.121094 L 201.09375 223.386719 L 201.09375 206.804688 L 184.910156 201.28125 Z M 184.515625 191.410156 " fill-opacity="1" fill-rule="nonzero"/></svg>