<svg xmlns="http://www.w3.org/2000/svg" xmlns:xlink="http://www.w3.org/1999/xlink" width="500" zoomAndPan="magnify" viewBox="0 0 375 374.999991" height="500" preserveAspectRatio="xMidYMid meet" version="1.0"><defs><clipPath id="id1"><path d="M 123.578125 163 L 230.078125 163 L 230.078125 283.90625 L 123.578125 283.90625 Z M 123.578125 163 " clip-rule="nonzero"/></clipPath><clipPath id="id2"><path d="M 133 133.90625 L 154 133.90625 L 154 155 L 133 155 Z M 133 133.90625 " clip-rule="nonzero"/></clipPath><clipPath id="id3"><path d="M 156 133.90625 L 175 133.90625 L 175 155 L 156 155 Z M 156 133.90625 " clip-rule="nonzero"/></clipPath><clipPath id="id4"><path d="M 177 133.90625 L 201 133.90625 L 201 155 L 177 155 Z M 177 133.90625 " clip-rule="nonzero"/></clipPath><clipPath id="id5"><path d="M 204 133.90625 L 221 133.90625 L 221 155 L 204 155 Z M 204 133.90625 " clip-rule="nonzero"/></clipPath></defs><g clip-path="url(#id1)"><path fill="rgb(89.408875%, 30.198669%, 14.898682%)" d="M 230.050781 163.382812 L 220.355469 271.839844 L 176.78125 283.902344 L 133.328125 271.855469 L 123.644531 163.382812 Z M 230.050781 163.382812 " fill-opacity="1" fill-rule="nonzero"/></g><path fill="rgb(94.509888%, 39.608765%, 16.079712%)" d="M 176.847656 274.679688 L 212.058594 264.933594 L 220.34375 172.253906 L 176.847656 172.253906 Z M 176.847656 274.679688 " fill-opacity="1" fill-rule="nonzero"/><path fill="rgb(92.158508%, 92.158508%, 92.158508%)" d="M 158.003906 198.859375 L 176.847656 198.859375 L 176.847656 185.554688 L 143.445312 185.554688 L 143.765625 189.125 L 147.039062 225.785156 L 176.847656 225.785156 L 176.847656 212.484375 L 159.222656 212.484375 Z M 158.003906 198.859375 " fill-opacity="1" fill-rule="nonzero"/><path fill="rgb(92.158508%, 92.158508%, 92.158508%)" d="M 161.007812 232.4375 L 147.632812 232.4375 L 149.5 253.328125 L 176.785156 260.894531 L 176.847656 260.875 L 176.847656 247.035156 L 176.789062 247.050781 L 161.953125 243.046875 Z M 161.007812 232.4375 " fill-opacity="1" fill-rule="nonzero"/><g clip-path="url(#id2)"><path fill="rgb(0%, 0%, 0%)" d="M 133.546875 133.90625 L 140.316406 133.90625 L 140.316406 140.585938 L 146.507812 140.585938 L 146.507812 133.90625 L 153.277344 133.90625 L 153.277344 154.132812 L 146.507812 154.132812 L 146.507812 147.359375 L 140.316406 147.359375 L 140.316406 154.132812 L 133.546875 154.132812 Z M 133.546875 133.90625 " fill-opacity="1" fill-rule="nonzero"/></g><g clip-path="url(#id3)"><path fill="rgb(0%, 0%, 0%)" d="M 162.179688 140.613281 L 156.21875 140.613281 L 156.21875 133.90625 L 174.914062 133.90625 L 174.914062 140.613281 L 168.949219 140.613281 L 168.949219 154.132812 L 162.179688 154.132812 Z M 162.179688 140.613281 " fill-opacity="1" fill-rule="nonzero"/></g><g clip-path="url(#id4)"><path fill="rgb(0%, 0%, 0%)" d="M 177.878906 133.90625 L 184.9375 133.90625 L 189.277344 141.015625 L 193.617188 133.90625 L 200.679688 133.90625 L 200.679688 154.132812 L 193.9375 154.132812 L 193.9375 144.109375 L 189.277344 151.300781 L 189.160156 151.300781 L 184.503906 144.109375 L 184.503906 154.132812 L 177.878906 154.132812 Z M 177.878906 133.90625 " fill-opacity="1" fill-rule="nonzero"/></g><g clip-path="url(#id5)"><path fill="rgb(0%, 0%, 0%)" d="M 204.046875 133.90625 L 210.816406 133.90625 L 210.816406 147.449219 L 220.339844 147.449219 L 220.339844 154.132812 L 204.046875 154.132812 Z M 204.046875 133.90625 " fill-opacity="1" fill-rule="nonzero"/></g><path fill="rgb(100%, 100%, 100%)" d="M 176.804688 225.785156 L 193.207031 225.785156 L 191.660156 243.039062 L 176.804688 247.046875 L 176.804688 260.882812 L 204.109375 253.328125 L 204.3125 251.078125 L 207.441406 216.054688 L 207.769531 212.484375 L 176.804688 212.484375 Z M 176.804688 225.785156 " fill-opacity="1" fill-rule="nonzero"/><path fill="rgb(100%, 100%, 100%)" d="M 176.804688 198.828125 L 176.804688 198.859375 L 208.976562 198.859375 L 209.246094 195.867188 L 209.855469 189.125 L 210.171875 185.554688 L 176.804688 185.554688 Z M 176.804688 198.828125 " fill-opacity="1" fill-rule="nonzero"/></svg>