<svg xmlns="http://www.w3.org/2000/svg" xmlns:xlink="http://www.w3.org/1999/xlink" width="500" zoomAndPan="magnify" viewBox="0 0 375 374.999991" height="500" preserveAspectRatio="xMidYMid meet" version="1.0"><defs><clipPath id="id1"><path d="M 117.347656 83.4375 L 267.347656 83.4375 L 267.347656 233.4375 L 117.347656 233.4375 Z M 117.347656 83.4375 " clip-rule="nonzero"/></clipPath><clipPath id="id2"><path d="M 117.347656 83.4375 L 193 83.4375 L 193 233.4375 L 117.347656 233.4375 Z M 117.347656 83.4375 " clip-rule="nonzero"/></clipPath></defs><g clip-path="url(#id1)"><path fill="rgb(100%, 76.858521%, 30.198669%)" d="M 122.929688 83.089844 C 121.425781 83.089844 120 83.734375 119.003906 84.859375 C 118.011719 85.984375 117.550781 87.480469 117.734375 88.972656 L 131.691406 200.597656 C 131.90625 202.335938 132.976562 203.847656 134.542969 204.628906 L 190.355469 232.539062 C 191.828125 233.273438 193.5625 233.273438 195.035156 232.539062 L 250.847656 204.628906 C 252.414062 203.847656 253.484375 202.335938 253.703125 200.597656 L 267.65625 88.972656 C 267.839844 87.480469 267.378906 85.984375 266.386719 84.859375 C 265.394531 83.734375 263.964844 83.089844 262.464844 83.089844 Z M 122.929688 83.089844 " fill-opacity="1" fill-rule="nonzero"/></g><g clip-path="url(#id2)"><path fill="rgb(89.7995%, 69.018555%, 27.059937%)" d="M 192.695312 83.089844 L 192.695312 233.089844 C 191.894531 233.089844 191.09375 232.90625 190.355469 232.539062 L 134.542969 204.628906 C 132.976562 203.847656 131.90625 202.335938 131.691406 200.597656 L 117.734375 88.972656 C 117.550781 87.480469 118.011719 85.984375 119.003906 84.859375 C 120 83.734375 121.425781 83.089844 122.929688 83.089844 Z M 192.695312 83.089844 " fill-opacity="1" fill-rule="evenodd"/></g><path fill="rgb(81.17981%, 84.709167%, 86.268616%)" d="M 182.230469 104.019531 C 185.121094 104.019531 187.464844 106.363281 187.464844 109.253906 L 187.464844 199.949219 C 187.464844 201.816406 186.472656 203.539062 184.855469 204.476562 C 183.246094 205.414062 181.253906 205.417969 179.636719 204.492188 L 155.214844 190.539062 C 152.707031 189.105469 151.835938 185.910156 153.269531 183.402344 C 154.703125 180.890625 157.898438 180.019531 160.410156 181.453125 L 177 190.933594 L 177 109.253906 C 177 106.363281 179.339844 104.019531 182.230469 104.019531 Z M 182.230469 104.019531 " fill-opacity="1" fill-rule="evenodd"/><path fill="rgb(92.549133%, 93.728638%, 94.509888%)" d="M 197.929688 109.253906 C 197.929688 106.363281 200.273438 104.019531 203.164062 104.019531 L 238.046875 104.019531 C 240.9375 104.019531 243.277344 106.363281 243.277344 109.253906 C 243.277344 112.140625 240.9375 114.484375 238.046875 114.484375 L 208.394531 114.484375 L 208.394531 148.078125 L 233.421875 142.515625 C 235.054688 142.152344 236.757812 142.59375 238.011719 143.695312 C 239.265625 144.800781 239.917969 146.433594 239.769531 148.097656 L 236.28125 186.46875 C 236.117188 188.273438 235.03125 189.867188 233.410156 190.675781 L 205.503906 204.628906 C 202.917969 205.921875 199.773438 204.875 198.480469 202.289062 C 197.1875 199.707031 198.238281 196.5625 200.820312 195.269531 L 226.121094 182.621094 L 228.699219 154.285156 L 204.296875 159.710938 C 202.746094 160.054688 201.125 159.675781 199.886719 158.683594 C 198.648438 157.691406 197.929688 156.1875 197.929688 154.601562 Z M 197.929688 109.253906 " fill-opacity="1" fill-rule="evenodd"/></svg>